<mxfile host="65bd71144e">
    <diagram id="3b9otCw1-JEZSQbppa7U" name="Page-1">
        <mxGraphModel dx="449" dy="401" grid="1" gridSize="10" guides="1" tooltips="1" connect="1" arrows="1" fold="1" page="1" pageScale="1" pageWidth="850" pageHeight="1100" math="0" shadow="0">
            <root>
                <mxCell id="0"/>
                <mxCell id="1" parent="0"/>
                <mxCell id="2" value="" style="rounded=0;whiteSpace=wrap;html=1;" vertex="1" parent="1">
                    <mxGeometry x="120" y="350" width="330" height="50" as="geometry"/>
                </mxCell>
                <mxCell id="3" value="1.75in x 13.125" style="text;html=1;strokeColor=none;fillColor=none;align=center;verticalAlign=middle;whiteSpace=wrap;rounded=0;" vertex="1" parent="1">
                    <mxGeometry x="217" y="310" width="140" height="30" as="geometry"/>
                </mxCell>
                <mxCell id="4" value="" style="rounded=0;whiteSpace=wrap;html=1;" vertex="1" parent="1">
                    <mxGeometry x="120" y="600" width="330" height="50" as="geometry"/>
                </mxCell>
                <mxCell id="5" value="1.75in x 13.125" style="text;html=1;strokeColor=none;fillColor=none;align=center;verticalAlign=middle;whiteSpace=wrap;rounded=0;" vertex="1" parent="1">
                    <mxGeometry x="217.5" y="659" width="135" height="30" as="geometry"/>
                </mxCell>
                <mxCell id="7" value="" style="rounded=0;whiteSpace=wrap;html=1;" vertex="1" parent="1">
                    <mxGeometry x="120" y="430" width="330" height="150" as="geometry"/>
                </mxCell>
                <mxCell id="8" value="" style="rounded=1;whiteSpace=wrap;html=1;" vertex="1" parent="1">
                    <mxGeometry x="150" y="365" width="20" height="20" as="geometry"/>
                </mxCell>
                <mxCell id="10" value="" style="rounded=0;whiteSpace=wrap;html=1;fillColor=#f5f5f5;fontColor=#333333;strokeColor=#666666;" vertex="1" parent="1">
                    <mxGeometry x="155" y="372.5" width="10" height="5" as="geometry"/>
                </mxCell>
                <mxCell id="11" value="" style="rounded=1;whiteSpace=wrap;html=1;" vertex="1" parent="1">
                    <mxGeometry x="190" y="365" width="20" height="20" as="geometry"/>
                </mxCell>
                <mxCell id="12" value="" style="rounded=0;whiteSpace=wrap;html=1;fillColor=#f5f5f5;fontColor=#333333;strokeColor=#666666;" vertex="1" parent="1">
                    <mxGeometry x="195" y="372.5" width="10" height="5" as="geometry"/>
                </mxCell>
                <mxCell id="13" value="" style="ellipse;whiteSpace=wrap;html=1;aspect=fixed;" vertex="1" parent="1">
                    <mxGeometry x="400" y="362.5" width="25" height="25" as="geometry"/>
                </mxCell>
                <mxCell id="14" value="" style="ellipse;whiteSpace=wrap;html=1;aspect=fixed;fillColor=#0050ef;fontColor=#ffffff;strokeColor=#001DBC;" vertex="1" parent="1">
                    <mxGeometry x="407.5" y="370" width="10" height="10" as="geometry"/>
                </mxCell>
                <mxCell id="15" value="&lt;font style=&quot;font-size: 8px;&quot;&gt;USB-B&lt;/font&gt;" style="text;html=1;strokeColor=none;fillColor=none;align=center;verticalAlign=middle;whiteSpace=wrap;rounded=0;" vertex="1" parent="1">
                    <mxGeometry x="160" y="380" width="45" height="20" as="geometry"/>
                </mxCell>
                <mxCell id="16" value="&lt;font style=&quot;font-size: 8px;&quot;&gt;5V power&lt;/font&gt;" style="text;html=1;strokeColor=none;fillColor=none;align=center;verticalAlign=middle;whiteSpace=wrap;rounded=0;" vertex="1" parent="1">
                    <mxGeometry x="390" y="380" width="45" height="20" as="geometry"/>
                </mxCell>
                <mxCell id="147" value="USB ports" style="text;html=1;strokeColor=none;fillColor=none;align=center;verticalAlign=middle;whiteSpace=wrap;rounded=0;strokeWidth=1;fontSize=8;" vertex="1" parent="1">
                    <mxGeometry x="130" y="629" width="43" height="19" as="geometry"/>
                </mxCell>
                <mxCell id="150" value="" style="rounded=0;whiteSpace=wrap;html=1;strokeWidth=1;fontSize=8;fillColor=#f0f0f0;gradientColor=none;" vertex="1" parent="1">
                    <mxGeometry x="424" y="620" width="10" height="10" as="geometry"/>
                </mxCell>
                <mxCell id="152" value="" style="rounded=0;whiteSpace=wrap;html=1;strokeWidth=1;fontSize=8;" vertex="1" parent="1">
                    <mxGeometry x="425" y="621" width="8" height="8" as="geometry"/>
                </mxCell>
                <mxCell id="171" value="" style="group" vertex="1" connectable="0" parent="1">
                    <mxGeometry x="130" y="617.5" width="280.5" height="15" as="geometry"/>
                </mxCell>
                <mxCell id="102" value="" style="rounded=0;whiteSpace=wrap;html=1;fontSize=8;strokeWidth=1;container=0;" vertex="1" parent="171">
                    <mxGeometry y="10" width="15" height="5" as="geometry"/>
                </mxCell>
                <mxCell id="103" value="" style="rounded=0;whiteSpace=wrap;html=1;strokeWidth=1;fontSize=8;fillColor=#f0f0f0;gradientColor=none;container=0;" vertex="1" parent="171">
                    <mxGeometry x="2.5" y="10" width="10" height="2" as="geometry"/>
                </mxCell>
                <mxCell id="121" value="" style="ellipse;whiteSpace=wrap;html=1;aspect=fixed;strokeWidth=1;fontSize=8;fillColor=#dae8fc;gradientColor=#7ea6e0;strokeColor=#6c8ebf;container=0;" vertex="1" parent="171">
                    <mxGeometry x="5" width="5" height="5" as="geometry"/>
                </mxCell>
                <mxCell id="99" value="" style="rounded=0;whiteSpace=wrap;html=1;fontSize=8;strokeWidth=1;container=0;" vertex="1" parent="171">
                    <mxGeometry x="29.5" y="10" width="15" height="5" as="geometry"/>
                </mxCell>
                <mxCell id="100" value="" style="rounded=0;whiteSpace=wrap;html=1;strokeWidth=1;fontSize=8;fillColor=#f0f0f0;gradientColor=none;container=0;" vertex="1" parent="171">
                    <mxGeometry x="32" y="10" width="10" height="2" as="geometry"/>
                </mxCell>
                <mxCell id="137" value="" style="ellipse;whiteSpace=wrap;html=1;aspect=fixed;strokeWidth=1;fontSize=8;fillColor=#dae8fc;gradientColor=#7ea6e0;strokeColor=#6c8ebf;container=0;" vertex="1" parent="171">
                    <mxGeometry x="34.5" width="5" height="5" as="geometry"/>
                </mxCell>
                <mxCell id="96" value="" style="rounded=0;whiteSpace=wrap;html=1;fontSize=8;strokeWidth=1;container=0;" vertex="1" parent="171">
                    <mxGeometry x="59" y="10" width="15" height="5" as="geometry"/>
                </mxCell>
                <mxCell id="97" value="" style="rounded=0;whiteSpace=wrap;html=1;strokeWidth=1;fontSize=8;fillColor=#f0f0f0;gradientColor=none;container=0;" vertex="1" parent="171">
                    <mxGeometry x="61.5" y="10" width="10" height="2" as="geometry"/>
                </mxCell>
                <mxCell id="138" value="" style="ellipse;whiteSpace=wrap;html=1;aspect=fixed;strokeWidth=1;fontSize=8;fillColor=#dae8fc;gradientColor=#7ea6e0;strokeColor=#6c8ebf;container=0;" vertex="1" parent="171">
                    <mxGeometry x="64" width="5" height="5" as="geometry"/>
                </mxCell>
                <mxCell id="93" value="" style="rounded=0;whiteSpace=wrap;html=1;fontSize=8;strokeWidth=1;container=0;" vertex="1" parent="171">
                    <mxGeometry x="88.5" y="10" width="15" height="5" as="geometry"/>
                </mxCell>
                <mxCell id="94" value="" style="rounded=0;whiteSpace=wrap;html=1;strokeWidth=1;fontSize=8;fillColor=#f0f0f0;gradientColor=none;container=0;" vertex="1" parent="171">
                    <mxGeometry x="91" y="10" width="10" height="2" as="geometry"/>
                </mxCell>
                <mxCell id="139" value="" style="ellipse;whiteSpace=wrap;html=1;aspect=fixed;strokeWidth=1;fontSize=8;fillColor=#dae8fc;gradientColor=#7ea6e0;strokeColor=#6c8ebf;container=0;" vertex="1" parent="171">
                    <mxGeometry x="93.5" width="5" height="5" as="geometry"/>
                </mxCell>
                <mxCell id="79" value="" style="rounded=0;whiteSpace=wrap;html=1;fontSize=8;strokeWidth=1;container=0;" vertex="1" parent="171">
                    <mxGeometry x="118" y="10" width="15" height="5" as="geometry"/>
                </mxCell>
                <mxCell id="80" value="" style="rounded=0;whiteSpace=wrap;html=1;strokeWidth=1;fontSize=8;fillColor=#f0f0f0;gradientColor=none;container=0;" vertex="1" parent="171">
                    <mxGeometry x="120.5" y="10" width="10" height="2" as="geometry"/>
                </mxCell>
                <mxCell id="140" value="" style="ellipse;whiteSpace=wrap;html=1;aspect=fixed;strokeWidth=1;fontSize=8;fillColor=#dae8fc;gradientColor=#7ea6e0;strokeColor=#6c8ebf;container=0;" vertex="1" parent="171">
                    <mxGeometry x="123" width="5" height="5" as="geometry"/>
                </mxCell>
                <mxCell id="117" value="" style="rounded=0;whiteSpace=wrap;html=1;fontSize=8;strokeWidth=1;container=0;" vertex="1" parent="171">
                    <mxGeometry x="147.5" y="10" width="15" height="5" as="geometry"/>
                </mxCell>
                <mxCell id="118" value="" style="rounded=0;whiteSpace=wrap;html=1;strokeWidth=1;fontSize=8;fillColor=#f0f0f0;gradientColor=none;container=0;" vertex="1" parent="171">
                    <mxGeometry x="150" y="10" width="10" height="2" as="geometry"/>
                </mxCell>
                <mxCell id="141" value="" style="ellipse;whiteSpace=wrap;html=1;aspect=fixed;strokeWidth=1;fontSize=8;fillColor=#dae8fc;gradientColor=#7ea6e0;strokeColor=#6c8ebf;container=0;" vertex="1" parent="171">
                    <mxGeometry x="152.5" width="5" height="5" as="geometry"/>
                </mxCell>
                <mxCell id="114" value="" style="rounded=0;whiteSpace=wrap;html=1;fontSize=8;strokeWidth=1;container=0;" vertex="1" parent="171">
                    <mxGeometry x="176.5" y="10" width="15" height="5" as="geometry"/>
                </mxCell>
                <mxCell id="115" value="" style="rounded=0;whiteSpace=wrap;html=1;strokeWidth=1;fontSize=8;fillColor=#f0f0f0;gradientColor=none;container=0;" vertex="1" parent="171">
                    <mxGeometry x="179" y="10" width="10" height="2" as="geometry"/>
                </mxCell>
                <mxCell id="142" value="" style="ellipse;whiteSpace=wrap;html=1;aspect=fixed;strokeWidth=1;fontSize=8;fillColor=#dae8fc;gradientColor=#7ea6e0;strokeColor=#6c8ebf;container=0;" vertex="1" parent="171">
                    <mxGeometry x="181.5" width="5" height="5" as="geometry"/>
                </mxCell>
                <mxCell id="111" value="" style="rounded=0;whiteSpace=wrap;html=1;fontSize=8;strokeWidth=1;container=0;" vertex="1" parent="171">
                    <mxGeometry x="206.5" y="10" width="15" height="5" as="geometry"/>
                </mxCell>
                <mxCell id="112" value="" style="rounded=0;whiteSpace=wrap;html=1;strokeWidth=1;fontSize=8;fillColor=#f0f0f0;gradientColor=none;container=0;" vertex="1" parent="171">
                    <mxGeometry x="209" y="10" width="10" height="2" as="geometry"/>
                </mxCell>
                <mxCell id="143" value="" style="ellipse;whiteSpace=wrap;html=1;aspect=fixed;strokeWidth=1;fontSize=8;fillColor=#dae8fc;gradientColor=#7ea6e0;strokeColor=#6c8ebf;container=0;" vertex="1" parent="171">
                    <mxGeometry x="211.5" width="5" height="5" as="geometry"/>
                </mxCell>
                <mxCell id="108" value="" style="rounded=0;whiteSpace=wrap;html=1;fontSize=8;strokeWidth=1;container=0;" vertex="1" parent="171">
                    <mxGeometry x="236" y="10" width="15" height="5" as="geometry"/>
                </mxCell>
                <mxCell id="109" value="" style="rounded=0;whiteSpace=wrap;html=1;strokeWidth=1;fontSize=8;fillColor=#f0f0f0;gradientColor=none;container=0;" vertex="1" parent="171">
                    <mxGeometry x="238.5" y="10" width="10" height="2" as="geometry"/>
                </mxCell>
                <mxCell id="144" value="" style="ellipse;whiteSpace=wrap;html=1;aspect=fixed;strokeWidth=1;fontSize=8;fillColor=#dae8fc;gradientColor=#7ea6e0;strokeColor=#6c8ebf;container=0;" vertex="1" parent="171">
                    <mxGeometry x="241" width="5" height="5" as="geometry"/>
                </mxCell>
                <mxCell id="105" value="" style="rounded=0;whiteSpace=wrap;html=1;fontSize=8;strokeWidth=1;container=0;" vertex="1" parent="171">
                    <mxGeometry x="265.5" y="10" width="15" height="5" as="geometry"/>
                </mxCell>
                <mxCell id="106" value="" style="rounded=0;whiteSpace=wrap;html=1;strokeWidth=1;fontSize=8;fillColor=#f0f0f0;gradientColor=none;container=0;" vertex="1" parent="171">
                    <mxGeometry x="268" y="10" width="10" height="2" as="geometry"/>
                </mxCell>
                <mxCell id="146" value="" style="ellipse;whiteSpace=wrap;html=1;aspect=fixed;strokeWidth=1;fontSize=8;fillColor=#dae8fc;gradientColor=#7ea6e0;strokeColor=#6c8ebf;container=0;" vertex="1" parent="171">
                    <mxGeometry x="270.5" width="5" height="5" as="geometry"/>
                </mxCell>
                <mxCell id="149" value="LED" style="text;html=1;strokeColor=none;fillColor=none;align=center;verticalAlign=middle;whiteSpace=wrap;rounded=0;strokeWidth=1;fontSize=8;" vertex="1" parent="171">
                    <mxGeometry x="-7.5" y="-11" width="30" height="16" as="geometry"/>
                </mxCell>
                <mxCell id="172" value="Eth" style="text;html=1;strokeColor=none;fillColor=none;align=center;verticalAlign=middle;whiteSpace=wrap;rounded=0;strokeWidth=1;fontSize=8;" vertex="1" parent="1">
                    <mxGeometry x="400" y="621" width="60" height="30" as="geometry"/>
                </mxCell>
            </root>
        </mxGraphModel>
    </diagram>
</mxfile>